<mxfile host="app.diagrams.net" agent="Mozilla/5.0 (Windows NT 10.0; Win64; x64; rv:142.0) Gecko/20100101 Firefox/142.0" version="28.1.2">
  <diagram name="SIPD vs Primary Psychosis" id="v9_1PpN5y9A4hOUBUGbS">
    <mxGraphModel dx="2216" dy="827" grid="1" gridSize="10" guides="1" tooltips="1" connect="1" arrows="1" fold="1" page="1" pageScale="1" pageWidth="850" pageHeight="1100" math="0" shadow="0">
      <root>
        <mxCell id="0" />
        <mxCell id="1" parent="0" />
        
        <!-- ========= LAYER 1: CORE FLOW ========= -->
        <mxCell id="layer1" value="Core Flow" style="layer" layer="1" />
        
        <!-- Start Node -->
        <mxCell id="startNode" value="Psychotic symptoms (hallucinations, delusions)" style="rounded=1;fillColor=#dae8fc;strokeColor=#6c8ebf;" vertex="1" parent="1" layer="layer1">
          <mxGeometry x="380" y="20" width="300" height="60" as="geometry" />
        </mxCell>
        
        <!-- Step 1 -->
        <mxCell id="step1" value="Evidence of recent substance/medication/toxin exposure?" style="shape=rhombus;perimeter=rhombusPerimeter;fillColor=#fff2cc;strokeColor=#d6b656;" vertex="1" parent="1" layer="layer1">
          <mxGeometry x="400" y="120" width="260" height="80" as="geometry" />
        </mxCell>
        
        <!-- Step 1: No -->
        <mxCell id="primaryNoSub" value="Primary Psychotic Disorder Likely\n(ICD-10: F20.x, F22, F25)" style="rounded=1;fillColor=#f8cecc;strokeColor=#b85450;" vertex="1" parent="1" layer="layer1">
          <mxGeometry x="50" y="250" width="280" height="80" as="geometry" />
        </mxCell>
        
        <!-- Step 1: Yes -->
        <mxCell id="step2" value="Did psychotic symptoms start during intoxication/withdrawal or soon after medication change?" style="shape=rhombus;perimeter=rhombusPerimeter;fillColor=#fff2cc;strokeColor=#d6b656;" vertex="1" parent="1" layer="layer1">
          <mxGeometry x="400" y="250" width="260" height="80" as="geometry" />
        </mxCell>
        
        <!-- Step 2: No -->
        <mxCell id="primaryNoTemporal" value="Primary Psychotic Disorder Likely\n(ICD-10: F20.x, F25)" style="rounded=1;fillColor=#f8cecc;strokeColor=#b85450;" vertex="1" parent="1" layer="layer1">
          <mxGeometry x="700" y="400" width="280" height="80" as="geometry" />
        </mxCell>
        
        <!-- Step 2: Yes -->
        <mxCell id="step3" value="Is the substance/medication known to cause psychosis?" style="shape=rhombus;perimeter=rhombusPerimeter;fillColor=#fff2cc;strokeColor=#d6b656;" vertex="1" parent="1" layer="layer1">
          <mxGeometry x="400" y="400" width="260" height="80" as="geometry" />
        </mxCell>
        
        <!-- Step 3: No -->
        <mxCell id="otherDx" value="Investigate other non-substance causes\n(e.g., delirium, organic brain disease)" style="rounded=1;fillColor=#f5f5f5;strokeColor=#666666;" vertex="1" parent="1" layer="layer1">
          <mxGeometry x="50" y="550" width="280" height="80" as="geometry" />
        </mxCell>
        
        <!-- Step 3: Yes -->
        <mxCell id="step4" value="Any episodes of psychosis before substance exposure?" style="shape=rhombus;perimeter=rhombusPerimeter;fillColor=#fff2cc;strokeColor=#d6b656;" vertex="1" parent="1" layer="layer1">
          <mxGeometry x="400" y="550" width="260" height="80" as="geometry" />
        </mxCell>
        
        <!-- Step 4: Yes -->
        <mxCell id="primaryPastHx" value="Primary Psychotic Disorder Likely\n(Dual influence possible)" style="rounded=1;fillColor=#f8cecc;strokeColor=#b85450;" vertex="1" parent="1" layer="layer1">
          <mxGeometry x="700" y="700" width="280" height="80" as="geometry" />
        </mxCell>
        
        <!-- Step 4: No -->
        <mxCell id="step5" value="Do symptoms persist >1 month after abstinence?" style="shape=rhombus;perimeter=rhombusPerimeter;fillColor=#fff2cc;strokeColor=#d6b656;" vertex="1" parent="1" layer="layer1">
          <mxGeometry x="400" y="700" width="260" height="80" as="geometry" />
        </mxCell>
        
        <!-- Step 5: Yes -->
        <mxCell id="primaryPersistent" value="Primary Psychotic Disorder Likely\n(ICD-10: F20.x, F25)" style="rounded=1;fillColor=#f8cecc;strokeColor=#b85450;" vertex="1" parent="1" layer="layer1">
          <mxGeometry x="50" y="850" width="280" height="80" as="geometry" />
        </mxCell>
        
        <!-- Step 5: No -->
        <mxCell id="SIPDend" value="Substance/Medication-Induced Psychotic Disorder\n(ICD-10: F1x.5 â€” specify substance)" style="rounded=1;fillColor=#d5e8d4;strokeColor=#82b366;" vertex="1" parent="1" layer="layer1">
          <mxGeometry x="400" y="850" width="300" height="80" as="geometry" />
        </mxCell>
        
        <!-- ========= LAYER 2: CLINICAL RED FLAGS ========= -->
        <mxCell id="layer2" value="Clinical Red Flags" style="layer" layer="2" />
        
        <!-- Red flags - Primary psychosis -->
        <mxCell id="red1" value="ðŸ”´ Primary psychosis clues:\nâ€¢ Prodromal decline months/years prior\nâ€¢ FHx schizophrenia spectrum\nâ€¢ Episodes w/o substance use\nâ€¢ Symptoms >1 mo post-abstinence\nâ€¢ Prominent thought disorder/negative symptoms" style="shape=callout;fillColor=#f8cecc;strokeColor=#b85450;" vertex="1" parent="1" layer="layer2">
          <mxGeometry x="720" y="150" width="280" height="150" as="geometry" />
        </mxCell>
        
        <!-- Green flags - SIPD -->
        <mxCell id="green1" value="ðŸŸ¢ SIPD clues:\nâ€¢ Onset during intox/withdrawal\nâ€¢ No prior psych hx\nâ€¢ Resolves in days-weeks abstinent\nâ€¢ Symptom profile matches drug effect\nâ€¢ Tox screen +ve" style="shape=callout;fillColor=#d5e8d4;strokeColor=#82b366;" vertex="1" parent="1" layer="layer2">
          <mxGeometry x="90" y="650" width="280" height="140" as="geometry" />
        </mxCell>

        <!-- ========= LAYER 3: SUBSTANCE PROFILES ========= -->
        <mxCell id="layer3" value="Substance Profiles" style="layer" layer="3" />
        
        <mxCell id="substances" value="Common psychotomimetic agents:\n\nStimulants (F15.5)\nâ€¢ Amphetamines, cocaine\nâ€¢ Persecutory delusions, tactile hallucinations\n\nCannabis (F12.5)\nâ€¢ Paranoid delusions, auditory hallucinations\n\nHallucinogens (F16.5)\nâ€¢ Visual distortions, depersonalization\n\nAlcohol (F10.5)\nâ€¢ Hallucinosis, DTs\n\nOthers (F19.5)\nâ€¢ PCP, ketamine, inhalants, steroids" style="rounded=1;fillColor=#fff2cc;strokeColor=#d6b656;whiteSpace=wrap;" vertex="1" parent="1" layer="layer3">
          <mxGeometry x="750" y="500" width="300" height="300" as="geometry" />
        </mxCell>

      </root>
    </mxGraphModel>
  </diagram>
</mxfile>
